<?xml version="1.0" encoding="utf-8"?>
<!-- Generator: Adobe Illustrator 19.2.0, SVG Export Plug-In . SVG Version: 6.00 Build 0)  -->
<svg version="1.1" id="Layer_1" xmlns="http://www.w3.org/2000/svg" xmlns:xlink="http://www.w3.org/1999/xlink" x="0px" y="0px"
	 viewBox="0 0 28 28" style="enable-background:new 0 0 28 28;" xml:space="preserve">
<style type="text/css">
	.st0{fill:#222222;}
	.st1{fill:#FFFFFF;}
</style>
<g>
	<path class="st0" d="M17.8,24.2H3.2C1.4,24.2,0,22.8,0,21V6.6c0-1.8,1.4-3.2,3.2-3.2h14.7c1.7,0,3.2,1.4,3.2,3.2V21
		C21,22.8,19.6,24.2,17.8,24.2z"/>
	<g>
		<path class="st1" d="M11.4,7.3c0.6,0,1.1,0,1.6,0.2c0.5,0.1,0.9,0.3,1.2,0.5c0.4,0.2,0.6,0.5,0.8,0.9c0.2,0.4,0.3,0.9,0.3,1.4
			c0,0.6-0.1,1.1-0.4,1.6s-0.7,0.8-1.3,1c0.8,0.2,1.3,0.6,1.7,1.1c0.4,0.5,0.6,1.2,0.6,2c0,0.6-0.1,1.2-0.4,1.6s-0.6,0.8-1,1.1
			c-0.4,0.3-0.9,0.5-1.4,0.6c-0.5,0.1-1.1,0.2-1.6,0.2h-6V7.3H11.4z M11.1,12.3c0.5,0,0.9-0.1,1.2-0.3s0.5-0.6,0.5-1.1
			c0-0.3,0-0.5-0.2-0.7c-0.1-0.2-0.2-0.3-0.4-0.4c-0.2-0.1-0.4-0.2-0.6-0.2c-0.2,0-0.5-0.1-0.7-0.1H8.3v2.9
			C8.3,12.3,11.1,12.3,11.1,12.3z M11.3,17.6c0.3,0,0.5,0,0.8-0.1s0.5-0.1,0.6-0.3c0.2-0.1,0.3-0.3,0.4-0.5c0.1-0.2,0.2-0.5,0.2-0.8
			c0-0.6-0.2-1.1-0.5-1.4c-0.4-0.3-0.8-0.4-1.4-0.4h-3v3.4L11.3,17.6L11.3,17.6z"/>
	</g>
</g>
</svg>
