<?xml version="1.0" encoding="utf-8"?>
<!-- Generator: Adobe Illustrator 19.2.0, SVG Export Plug-In . SVG Version: 6.00 Build 0)  -->
<svg version="1.1" id="Layer_1" xmlns="http://www.w3.org/2000/svg" xmlns:xlink="http://www.w3.org/1999/xlink" x="0px" y="0px"
	 viewBox="0 0 28 28" style="enable-background:new 0 0 28 28;" xml:space="preserve">
<path d="M9.3,7.6C8.6,7.6,8,8.2,8,8.9c0,0.7,0.6,1.3,1.3,1.3s1.3-0.6,1.3-1.3C10.5,8.2,10,7.6,9.3,7.6z M9.3,8.8
	c-0.4,0-0.7-0.2-0.7-0.5s0.3-0.5,0.7-0.5c0.4,0,0.7,0.2,0.7,0.5C10,8.6,9.7,8.8,9.3,8.8z M23.5,13.8c-1.2-1.2-7.4-1.9-9.4-2.1
	c0.1-0.2,0.2-0.5,0.2-0.7c0.3-0.1,0.6-0.2,0.8-0.3c0,0.1,0.2,0.5,0.3,0.7c3.9,0.1,4.1-2.9,4.3-3.7C20,6.8,20,6,21.4,4.6
	c-2-0.6-4.9,0.9-5.8,3.1c-0.4-0.1-0.7-0.2-1.1-0.3c-0.3-1-1.6-3.9-5.1-3.9C7,3.4,4.7,4.4,3,6C2.1,6.9,1.3,8,0.8,9.1
	C0.3,10.4,0,11.8,0,13.3c0,5.2,3.6,9.8,5.6,9.8c0.9,0,1.6-0.7,1.8-1.2c0.1,0.4,0.6,1.7,0.8,2c0.2,0.5,1.2,0.9,1.7,0.4
	c0.6,0.3,1.6,0.5,2.2-0.3c1.1,0.2,2.1-0.4,2.1-1.2c0.5,0,0.8-0.8,0.7-1.4c-0.1-0.4-1-2.1-1.4-2.6c0.7,0.6,2.6,0.8,2.8,0
	c1.2,0.9,3,0.4,3.1-0.3c1.4,0.4,3-0.4,2.8-1.4C24.5,16.8,24.2,14.4,23.5,13.8L23.5,13.8L23.5,13.8z M17.6,9.7
	c-0.6-0.2-1.4-0.4-1.9-0.4c-0.8,0-1.2,0.4-1.9,0.4c-0.1,0-0.5,0-0.8-0.1c0.2,0.2,0.4,0.3,0.9,0.3c0.3,0,0.8-0.1,1.2-0.3
	c0,0.1,0,0.2,0,0.3c-0.8,0.2-1.7,0.7-1.9,0.8c-0.6-1.2-0.1-2.4,0.4-2.9C15.5,7.9,17.1,9.3,17.6,9.7L17.6,9.7z M18.4,9.6l-0.3-0.3
	c-0.3-0.3-0.6-0.6-1-0.8c0.5-1,1.1-2,1.9-2.7c-0.9,0.3-1.7,1.4-2.2,2.5c-0.3-0.2-0.5-0.3-0.8-0.4c0.7-1.5,2.3-2.7,4.1-2.8
	C19,6.2,19.5,8.4,18.4,9.6L18.4,9.6z M16,10.7c-0.1-0.3-0.3-0.8-0.2-1c0.2,0,0.7,0.1,0.7,0.1c0,0.1,0,0.4,0,0.5
	c0-0.1,0.2-0.3,0.2-0.4c0.4,0.1,1,0.2,1.3,0.4C17.6,10.4,16.9,10.6,16,10.7L16,10.7z M13.3,7.3c-1.6,1.6-0.9,3.6-0.4,4.5
	c-0.8,1.3-2.4,2.3-4.3,2.7c2.1,0,3.3-0.5,4-1.1c0.5-0.3,0.7-0.7,0.8-0.8c3.1,0.2,8,1.2,8.4,1.5c0.2,0.1,0.4,0.4,0.4,0.7
	c-2.3-0.3-6.5-0.7-7.6-0.7c0.8,0.1,6.4,1.2,7.4,1.4c-0.3,0.5-1,0.8-2,0.6c0.6,0.8-0.5,1.7-2,1.2c0.3,0.7-1,1.4-2.5,0.6
	c0,0.7-1.9,0.8-2.6,0c0,0.1,0.1,0.3,0.1,0.4c-0.2,2.2-2,3.5-3.8,3.5c-4.4,0-8.3-3.6-8.3-8.4c0-5.1,3.8-8.9,8.3-8.9
	C11.9,4.5,13.1,6.5,13.3,7.3L13.3,7.3z"/>
</svg>
