<?xml version="1.0" encoding="utf-8"?>
<!-- Generator: Adobe Illustrator 19.2.0, SVG Export Plug-In . SVG Version: 6.00 Build 0)  -->
<svg version="1.1" id="Layer_1" xmlns="http://www.w3.org/2000/svg" xmlns:xlink="http://www.w3.org/1999/xlink" x="0px" y="0px"
	 viewBox="0 0 28 28" style="enable-background:new 0 0 28 28;" xml:space="preserve">
<path d="M19.2,19.8c-0.7-1.7-2.4-3.9-3.1-5.1c-0.8-1.4-1.7-5.2,0-6.7c1.8-1.5,3.7-1.4,4.7-0.6c1,0.7,1.5,2.1,1.1,0.8
	c-0.4-1.3-2-3.3-4.9-3.3s-6.2,2.1-7.2,4.1s-0.2,3.6-1.5,4.6s-2.4,3.8-2.4,3.8s-0.7,1.3-1,2.4c0,0,0,0.1,0,0.1S0,20.3,0,21.3
	s4.4,1.9,9.4,1.9c0.8,0,1.6,0,2.6,0c0.9,0,1.8,0,2.6,0c5.1,0,9.4-0.8,9.4-1.9C24,20.3,19.5,19.8,19.2,19.8z"/>
</svg>
