<?xml version="1.0" encoding="utf-8"?>
<!-- Generator: Adobe Illustrator 19.2.0, SVG Export Plug-In . SVG Version: 6.00 Build 0)  -->
<svg version="1.1" id="Layer_1" xmlns="http://www.w3.org/2000/svg" xmlns:xlink="http://www.w3.org/1999/xlink" x="0px" y="0px"
	 viewBox="0 0 14 28" style="enable-background:new 0 0 14 28;" xml:space="preserve">
<path d="M10.1,1c0,0-0.7,0.7-1.5,1.5L7.2,4.1L6.7,6.3H5.1C2.1,6.4,0.4,6.6,0,7c0,0.1,0,0.1,0.1,0.2C0.9,7.8,7,8,9.8,7.5
	c1-0.2,1.3-0.4,0.7-0.7c-0.4-0.2-1.9-0.4-2.6-0.4c-0.2,0-0.2,0-0.2-0.1c0,0,0.1-0.5,0.2-1l0.2-0.9L9.4,3c0.7-0.8,1.3-1.4,1.3-1.5
	C10.9,1.4,10.3,0.9,10.1,1z M0.1,7.6c0,0.1,0.6,5.5,0.6,5.6c0,0,0.1,0,0.1-0.2c0.4-1.2,1.3-2.2,2-2.4c0.3-0.1,0.6,0,0.9,0.3
	C4,11.3,4,11.6,3.8,11.8c-0.1,0.1-0.2,0-0.4-0.3c-0.3-0.6-0.9-0.3-1.6,0.8s-0.9,2.4-0.3,2.4c0.2,0,0.7-0.4,1-0.8
	c0.2-0.3,0.3-0.4,0.4-0.8c0.1-0.2,0.2-0.5,0.2-0.5s0.1,0,0.2,0c0.1,0,0.1,0,0.1,0.2s0,0.3-0.1,0.6c-0.1,0.4-0.3,0.9-0.6,1.9
	c-0.1,0.2-0.2,0.5-0.2,0.5c-0.1,0.1-0.3,0.1-0.3,0s0-0.2,0.1-0.7c0.1-0.3,0.2-0.6,0.2-0.6c0-0.1-0.1,0-0.3,0.2
	c-0.5,0.4-0.9,0.6-1.2,0.5c-0.1,0-0.1,0-0.1,0.1c0,0.4,0.3,3.6,0.4,3.7c0.1,0.2,1.2,0.5,2.2,0.6c0.8,0.1,3,0.1,3.8,0
	c0.7-0.1,1.4-0.3,1.8-0.4c0.5-0.2,0.4,0,0.7-2.4c0.1-1.2,0.2-2.2,0.2-2.2s-0.2,0.1-0.3,0.3c-0.4,0.3-0.6,0.4-0.9,0.5
	c-0.3,0-0.4-0.1-0.4-0.2c-0.1-0.2,0-0.4,0.4-0.8c0.4-0.5,0.5-0.6,0.5-0.7c0-0.2-0.5,0-0.8,0.4c-0.1,0.1-0.2,0.3-0.3,0.4
	c-0.2,0.3-0.6,1.2-0.8,1.8C7.2,16.8,7.1,17,6.9,17c-0.1,0-0.2-0.1-0.2-0.2s0.2-0.5,0.4-1.1C7.3,15.3,7.4,15,7.4,15s-0.1,0.1-0.2,0.1
	c-0.3,0.2-0.6,0.4-0.8,0.4C6.2,15.2,6,15.1,6,15s0-0.1-0.3,0.1C5.3,15.3,5,15.2,5,14.8v-0.2l-0.2,0.2c-0.4,0.4-0.8,0.5-1.1,0.3
	c-0.2-0.1-0.2-0.4,0-1c0.3-1,0.6-1.3,0.8-1.2c0.1,0.1,0.1,0.2-0.1,0.7c-0.4,0.8-0.4,1.1-0.1,1s0.7-0.6,1-1.3C5.4,13.2,5.5,13,5.5,13
	c0.1-0.1,0.3-0.1,0.3,0.1c0,0.1,0,0.2-0.2,0.7c-0.2,0.4-0.2,0.6-0.2,0.8s0,0.2,0.1,0.2c0.2,0,0.4-0.2,0.5-0.3
	c0.1-0.5,1.2-3.2,1.3-3.3C7.5,11,7.5,11,7.6,11.1c0.1,0,0.1,0.1,0.1,0.1c0,0.1-0.1,0.3-0.2,0.6c-0.5,1.1-1.1,2.6-1.1,2.8
	c0,0.1,0,0.1,0,0.1c0.1,0,0.4-0.2,0.8-0.5c0.3-0.3,0.4-0.4,0.4-0.6C7.8,13,7.9,12.9,8.1,13c0.1,0,0.1,0.1,0.1,0.2c0,0.1,0,0.2,0,0.2
	s0.1-0.1,0.2-0.2c0.4-0.3,0.7-0.4,1-0.2c0.1,0.1,0.2,0.1,0.2,0.3S9.4,13.9,9,14.4c-0.1,0.2-0.3,0.3-0.3,0.4c0,0,0,0,0.1,0
	s0.9-0.6,1.1-0.8c0.1-0.1,0.2-0.9,0.4-3.3c0.2-1.7,0.3-3.2,0.3-3.2s-0.1,0-0.3,0.1C9.9,7.7,9.1,7.9,8.2,8C7.3,8,3.8,8.1,2.7,8
	c-1-0.1-1.9-0.2-2.3-0.4H0.1L0.1,7.6L0.1,7.6z M1.5,19.4c0,0,0.2,0.3,0.3,0.6l0.3,0.6l0.1,1.9l0.1,1.9l0.1,0.1C3,24.8,3.8,25,5.1,25
	c1.5,0,2.7-0.2,3.1-0.5l0.2-0.1l0.1-1.9l0.1-1.9L8.9,20c0.2-0.3,0.3-0.6,0.3-0.6s-0.1,0-0.3,0.1c-0.6,0.2-1.9,0.4-3,0.5
	c-1.2,0.1-3.1-0.2-4.1-0.5C1.6,19.4,1.5,19.4,1.5,19.4L1.5,19.4z"/>
</svg>
