<?xml version="1.0" encoding="utf-8"?>
<!-- Generator: Adobe Illustrator 19.2.0, SVG Export Plug-In . SVG Version: 6.00 Build 0)  -->
<svg version="1.1" id="Layer_1" xmlns="http://www.w3.org/2000/svg" xmlns:xlink="http://www.w3.org/1999/xlink" x="0px" y="0px"
	 viewBox="0 0 28 28" style="enable-background:new 0 0 28 28;" xml:space="preserve">
<path d="M10.6,26c-0.3,0-0.6-0.1-0.9-0.2L6.8,24c-0.4-0.2-0.2-0.3-0.1-0.4C7.3,23.4,7.4,23.4,8,23c0.1,0,0.2,0,0.2,0l2.3,1.3
	c0.1,0,0.2,0,0.3,0l8.8-5.1c0.1,0,0.1-0.1,0.1-0.2V8.9c0-0.1-0.1-0.2-0.1-0.2l-8.8-5.1c-0.1,0-0.2,0-0.3,0L1.7,8.7
	c-0.1,0-0.1,0.1-0.1,0.2v10.2c0,0.1,0.1,0.2,0.1,0.2l2.4,1.4c1.3,0.7,2.1-0.1,2.1-0.9v-10c0-0.1,0.1-0.3,0.3-0.3h1.1
	c0.1,0,0.3,0.1,0.3,0.3v10c0,1.7-0.9,2.7-2.6,2.7c-0.5,0-0.9,0-2-0.6l-2.3-1.3C0.4,20.3,0,19.7,0,19.1V8.9c0-0.7,0.4-1.3,0.9-1.6
	l8.8-5.1c0.6-0.3,1.3-0.3,1.8,0l8.8,5.1c0.6,0.3,0.9,0.9,0.9,1.6v10.1c0,0.7-0.4,1.3-0.9,1.6l-8.8,5.1C11.3,25.9,11,26,10.6,26
	L10.6,26z M13.4,19c-3.9,0-4.7-1.8-4.7-3.2c0-0.1,0.1-0.3,0.3-0.3h1.1c0.1,0,0.2,0.1,0.3,0.2c0.2,1.2,0.7,1.7,3,1.7
	c1.9,0,2.6-0.4,2.6-1.4c0-0.6-0.2-1-3.1-1.3C10.5,14.6,9,14,9,12.1c0-1.8,1.5-2.8,4-2.8c2.8,0,4.2,1,4.4,3.1c0,0.1,0,0.1-0.1,0.2
	c0,0.1-0.1,0.1-0.2,0.1H16c-0.1,0-0.2-0.1-0.2-0.2c-0.3-1.2-0.9-1.6-2.7-1.6c-2,0-2.3,0.7-2.3,1.2c0,0.6,0.3,0.8,3,1.2
	c2.7,0.4,4,0.9,4,2.8C17.7,17.9,16.1,19,13.4,19L13.4,19L13.4,19z"/>
</svg>
