<?xml version="1.0" encoding="utf-8"?>
<!-- Generator: Adobe Illustrator 20.1.0, SVG Export Plug-In . SVG Version: 6.00 Build 0)  -->
<svg version="1.1" id="Layer_1" xmlns="http://www.w3.org/2000/svg" xmlns:xlink="http://www.w3.org/1999/xlink" x="0px" y="0px"
	 viewBox="0 0 28 28" style="enable-background:new 0 0 28 28;" xml:space="preserve">
<path d="M1,13.6v4.3h7.2v1.4h5.7v-1.4h12.8V9.3H1.1L1,13.6L1,13.6z M8.2,13.6v2.9H6.8v-4.3H5.4v4.3H2.4v-5.7h5.8V13.6z M15.4,13.6
	l0,2.9l-2.8,0v1.4H9.6v-7.2h5.8L15.4,13.6L15.4,13.6z M25.4,13.6v2.9h-1.4v-4.3h-1.4v4.3l-1.4,0v-4.3h-1.4v4.3h-2.9v-5.7h8.6V13.6
	L25.4,13.6z M12.5,13.6V15h1.3v-2.8h-1.3V13.6L12.5,13.6z"/>
</svg>
