<?xml version="1.0" encoding="utf-8"?>
<!-- Generator: Adobe Illustrator 19.2.0, SVG Export Plug-In . SVG Version: 6.00 Build 0)  -->
<svg version="1.1" id="Layer_1" xmlns="http://www.w3.org/2000/svg" xmlns:xlink="http://www.w3.org/1999/xlink" x="0px" y="0px"
	 viewBox="0 0 28 28" style="enable-background:new 0 0 28 28;" xml:space="preserve">
<path d="M6,10.6H1.8L0,19.8h2.2l0.5-2.4h2c1.9,0.1,4.1-1.5,4.1-4.2C8.8,11.6,7.8,10.7,6,10.6L6,10.6z M4.4,15.7H3.1l0.6-3.4h1.5
	c0.8,0,1.4,0.3,1.4,1C6.4,15.3,5.5,15.6,4.4,15.7z M13.6,10.6h-2l0.5-2.4H9.9l-1.8,9.2h2.2l1-5.1H13c0.8,0,0.8,0.3,0.7,0.9l-0.8,4.2
	h2.3l0.8-4.7C16.1,11.6,15.5,10.7,13.6,10.6L13.6,10.6z M21.3,10.6h-4.2l-1.8,9.2h2.2l0.5-2.4h2c1.9,0.1,4.1-1.5,4.1-4.2
	C24,11.6,23.1,10.7,21.3,10.6L21.3,10.6z M19.7,15.7h-1.4l0.6-3.4h1.5c0.8,0,1.4,0.3,1.4,1C21.6,15.3,20.7,15.6,19.7,15.7z"/>
</svg>
