<?xml version="1.0" encoding="utf-8"?>
<!-- Generator: Adobe Illustrator 20.1.0, SVG Export Plug-In . SVG Version: 6.00 Build 0)  -->
<svg version="1.1" id="Layer_1" xmlns="http://www.w3.org/2000/svg" xmlns:xlink="http://www.w3.org/1999/xlink" x="0px" y="0px"
	 viewBox="0 0 28 28" style="enable-background:new 0 0 28 28;" xml:space="preserve">
<g>
	<path d="M22.8,9.8L22.8,9.8c-0.3-0.1-0.6-0.2-0.9-0.3C22,9.4,22,9.2,22,9c0.7-3.2,0.2-5.8-1.3-6.7c-1.4-0.8-3.7,0-6.1,2.1
		C14.5,4.6,14.2,4.8,14,5c-0.1-0.1-0.3-0.3-0.5-0.4c-2.5-2.2-4.9-3.1-6.4-2.2C5.7,3.1,5.3,5.6,5.9,8.6C6,8.9,6,9.2,6.1,9.5
		c-0.3,0.1-0.7,0.2-1,0.3c-2.9,1-4.7,2.6-4.7,4.2c0,1.7,2,3.4,5,4.4c0.2,0.1,0.5,0.2,0.7,0.2c-0.1,0.3-0.2,0.6-0.2,1
		c-0.6,3-0.1,5.4,1.3,6.2c1.5,0.8,3.9,0,6.3-2.1c0.2-0.2,0.4-0.3,0.6-0.5c0.2,0.2,0.5,0.5,0.7,0.7c2.3,2,4.6,2.8,6,2
		c1.5-0.8,1.9-3.4,1.3-6.5c0-0.2-0.1-0.5-0.2-0.7c0.2-0.1,0.3-0.1,0.5-0.2c3.1-1,5.2-2.7,5.2-4.4C27.6,12.4,25.7,10.9,22.8,9.8z
		 M15.5,5.2c2-1.8,3.9-2.4,4.7-1.9c0.9,0.5,1.3,2.6,0.7,5.4c0,0.2-0.1,0.4-0.1,0.5c-1.1-0.3-2.4-0.5-3.6-0.6c-0.7-1.1-1.5-2-2.3-2.9
		C15,5.6,15.2,5.4,15.5,5.2z M8.4,15.5c0.2,0.5,0.5,0.9,0.8,1.4c0.3,0.5,0.6,0.9,0.9,1.4c-0.9-0.1-1.7-0.2-2.5-0.4
		C7.8,17.1,8.1,16.3,8.4,15.5z M8.4,12.7c-0.3-0.8-0.6-1.6-0.9-2.4c0.8-0.2,1.6-0.3,2.5-0.4c-0.3,0.5-0.6,0.9-0.8,1.4
		C8.9,11.8,8.7,12.3,8.4,12.7z M9,14.1c0.4-0.7,0.7-1.5,1.2-2.2v0c0.4-0.7,0.9-1.4,1.3-2.1c0.8-0.1,1.6-0.1,2.5-0.1
		c0.8,0,1.7,0,2.5,0.1c0.5,0.7,0.9,1.4,1.3,2.1c0.4,0.7,0.8,1.4,1.2,2.2c-0.4,0.7-0.8,1.5-1.2,2.2l0,0c-0.4,0.7-0.8,1.4-1.3,2.1
		c-0.8,0.1-1.6,0.1-2.5,0.1c-0.8,0-1.7,0-2.5-0.1c-0.5-0.7-0.9-1.4-1.3-2.1C9.8,15.6,9.4,14.9,9,14.1z M18.8,16.9
		c0.3-0.5,0.5-1,0.8-1.4h0c0.4,0.8,0.7,1.6,0.9,2.4c-0.8,0.2-1.6,0.3-2.5,0.4C18.3,17.8,18.5,17.3,18.8,16.9z M19.6,12.7
		c-0.3-0.5-0.5-1-0.8-1.4v0c-0.3-0.5-0.5-0.9-0.8-1.4c0.9,0.1,1.7,0.3,2.5,0.4C20.2,11.1,19.9,11.9,19.6,12.7z M14,6.7
		c0.5,0.6,1.1,1.2,1.6,1.9c-1.1-0.1-2.1-0.1-3.2,0C12.9,7.9,13.5,7.2,14,6.7z M7.7,3.3c0.9-0.5,2.9,0.2,5.1,2.1
		c0.1,0.1,0.3,0.2,0.4,0.4c-0.8,0.8-1.6,1.8-2.3,2.9C9.6,8.8,8.4,9,7.2,9.3C7.2,9,7.1,8.7,7.1,8.4v0C6.5,5.8,6.9,3.8,7.7,3.3z
		 M6.4,17.6c-0.2-0.1-0.5-0.1-0.7-0.2c-1.3-0.5-2.4-1-3.2-1.7c-0.7-0.6-1-1.2-1-1.6c0-1,1.5-2.3,3.9-3.1c0.3-0.1,0.6-0.2,0.9-0.3
		c0.3,1.1,0.8,2.3,1.3,3.4C7.2,15.3,6.8,16.5,6.4,17.6z M12.7,22.9c-1.1,0.9-2.1,1.6-3,1.9l0,0c-0.8,0.3-1.5,0.3-1.9,0.1
		c-0.9-0.5-1.2-2.4-0.7-5c0.1-0.3,0.1-0.6,0.2-0.9c1.1,0.2,2.4,0.4,3.7,0.5c0.8,1.1,1.5,2,2.3,2.9C13.1,22.6,12.9,22.7,12.7,22.9z
		 M14,21.6c-0.6-0.6-1.1-1.3-1.6-2c0.5,0,1.1,0,1.6,0c0.6,0,1.1,0,1.6,0C15.1,20.3,14.6,21,14,21.6z M21.1,23.2
		c-0.2,0.9-0.5,1.5-0.9,1.7c-0.9,0.5-2.7-0.1-4.7-1.9c-0.2-0.2-0.5-0.4-0.7-0.6c0.8-0.8,1.5-1.8,2.3-2.9c1.3-0.1,2.6-0.3,3.7-0.6
		c0.1,0.2,0.1,0.4,0.1,0.7v0C21.3,21,21.3,22.2,21.1,23.2z M22.1,17.4L22.1,17.4c-0.1,0-0.3,0.1-0.5,0.1c-0.3-1.1-0.8-2.3-1.4-3.5
		c0.5-1.2,1-2.3,1.3-3.4c0.3,0.1,0.5,0.2,0.8,0.3c2.5,0.9,4.1,2.2,4.1,3.1C26.5,15.1,24.8,16.5,22.1,17.4z"/>
	<circle cx="14" cy="14.1" r="2.4"/>
</g>
</svg>
