<?xml version="1.0" encoding="utf-8"?>
<!-- Generator: Adobe Illustrator 20.1.0, SVG Export Plug-In . SVG Version: 6.00 Build 0)  -->
<svg version="1.1" id="Layer_1" xmlns="http://www.w3.org/2000/svg" xmlns:xlink="http://www.w3.org/1999/xlink" x="0px" y="0px"
	 viewBox="0 0 28 28" style="enable-background:new 0 0 28 28;" xml:space="preserve">
<g>
	<path d="M18.9,18.9c1-0.1,1.7-0.9,1.6-1.9s-0.9-1.8-1.8-1.8h-0.1c-1,0-1.8,0.9-1.8,1.9c0,0.5,0.2,0.9,0.5,1.2
		c-1.1,2.2-2.8,3.8-5.4,5.2c-1.7,0.9-3.6,1.2-5.4,1c-1.5-0.2-2.6-0.9-3.4-1.9c-1.1-1.6-1.2-3.4-0.3-5.1c0.6-1.2,1.6-2.2,2.2-2.6
		c-0.1-0.4-0.3-1.2-0.4-1.7C0,16.6,0.5,21.3,2,23.5c1.1,1.6,3.3,2.7,5.7,2.7c0.7,0,1.3-0.1,2-0.2C13.9,25.1,17.1,22.6,18.9,18.9z
		 M24.6,14.8c-2.5-2.9-6.2-4.5-10.4-4.5h-0.5c-0.3-0.6-0.9-1-1.6-1h-0.1c-1,0-1.8,0.9-1.8,1.9c0,1,0.9,1.8,1.8,1.8h0.1
		c0.7,0,1.3-0.5,1.6-1.1h0.6c2.5,0,4.9,0.7,7,2.1c1.6,1.1,2.8,2.5,3.5,4.2c0.6,1.4,0.5,2.7-0.1,3.9c-0.9,1.7-2.5,2.7-4.5,2.7
		c-1.3,0-2.6-0.4-3.2-0.7c-0.4,0.3-1,0.9-1.5,1.2c1.4,0.7,2.9,1,4.2,1c3.2,0,5.5-1.7,6.4-3.5C27.2,20.9,27.1,17.6,24.6,14.8z
		 M7.9,19.4c0,1,0.9,1.8,1.8,1.8h0.1c1,0,1.8-0.9,1.8-1.9c0-1-0.9-1.8-1.8-1.8H9.7c-0.1,0-0.2,0-0.2,0c-1.3-2.2-1.9-4.7-1.7-7.3
		c0.1-2,0.8-3.7,1.9-5.1c1-1.2,2.8-1.8,4-1.8c3.5-0.1,5,4.3,5.1,6c0.4,0.1,1.2,0.3,1.6,0.5c-0.4-5.3-3.7-8.1-6.8-8.1
		c-3,0-5.7,2.1-6.8,5.3c-1.5,4.2-0.5,8.3,1.3,11.4C8,18.7,7.9,19.1,7.9,19.4z"/>
</g>
</svg>
