<?xml version="1.0" encoding="utf-8"?>
<!-- Generator: Adobe Illustrator 19.2.0, SVG Export Plug-In . SVG Version: 6.00 Build 0)  -->
<svg version="1.1" id="Layer_1" xmlns="http://www.w3.org/2000/svg" xmlns:xlink="http://www.w3.org/1999/xlink" x="0px" y="0px"
	 viewBox="0 0 28 28" style="enable-background:new 0 0 28 28;" xml:space="preserve">
<g id="P7Bpq9_3_">
	<g>
		<path d="M13.2,15.2c0.4,0.1,0.5,0.3,0.5,0.6c-0.2,0.9-0.5,1.7-0.7,2.6c0,0.2-0.1,0.4,0,0.7c0.1,0,0.1-0.1,0.2-0.2
			c0.7-1.4,1.3-2.8,2-4.3c0.2-0.6,0.4-1.1,0.6-1.7c0-0.1,0.1-0.2,0.3-0.3c0.4-0.1,0.8-0.2,1.2-0.1c0.3,0.1,0.4,0.2,0.3,0.5
			c-0.2,0.6-0.3,1.3-0.2,2c0,0.3,0.1,0.5,0.3,0.8c0.1,0.1,0.1,0.1,0.2,0c0.6-1.1,1.3-2.1,1.6-3.3c0.1-0.7,0.2-0.7,0.9-0.7
			c0.2,0,0.3,0,0.5,0c0.3,0,0.5,0.2,0.3,0.5c-0.2,0.6-0.3,1.3-0.2,1.9c0.1,0.4,0.3,0.8,0.5,1.2c0.1,0.1,0.1,0.1,0.2,0.1
			c0.6-0.3,1.3-0.5,2-0.5c1.5-0.1,2.8,0.3,3.7,1.7c0.4,0.7,0.6,1.4,0.2,2.2c-0.2,0.4-0.6,0.7-1,0.9c-0.1,0-0.2,0.1-0.3,0
			s0.1-0.2,0.1-0.2c1-0.8,1-1.9,0-2.7c-0.6-0.5-1.2-0.7-2-0.7C23.5,16,22.7,16,22,16.3c-0.2,0.1-0.2,0.1-0.1,0.3
			c0.5,1.2-0.1,2-1.1,2.6c-0.3,0.2-0.6,0.3-1,0.4c-0.7,0.2-1.1-0.2-1-0.9c0.1-0.7,0.5-1.2,0.9-1.7c0.1-0.1,0.2-0.3,0.4-0.4
			c0.1-0.1,0.2-0.1,0.2-0.2c0-0.1-0.4-0.4-0.8-2c-0.1,0.2-0.2,0.5-0.4,0.7c-0.3,0.6-1.1,1.9-1.1,1.9c0,0.1,0,0.2,0,0.2
			c0.1,0.2,0.2,0.5,0.2,0.8c0.1,1-0.4,1.7-1.2,2.1c-0.5,0.3-1.1,0.5-1.7,0.4c-0.2,0-0.5-0.1-0.6-0.3c-0.1-0.2,0-0.4,0.1-0.6
			c0.5-0.6,0.9-1.1,1.4-1.7c0.3-0.3,0.4-0.5,0.4-0.6c0-0.1-0.5-0.7-0.8-2.2c-0.2,0.4-0.3,0.8-0.5,1.1c-0.6,1.3-1.2,2.5-1.9,3.7
			c-0.1,0.3-0.3,0.5-0.6,0.7c-0.5,0.4-1,0.3-1.2-0.4c-0.1-0.4-0.1-0.8-0.1-1.1c0,0,0-0.2,0-0.2c-0.3,0.6-0.5,1.1-0.8,1.7
			c-0.2,0.4-0.6,0.7-1.1,0.7c-0.3,0-0.5-0.1-0.6-0.3c-0.4-0.6-0.6-1.2-0.7-1.9c-0.1-0.7,0.1-1.4,0.2-2.1c0-0.1,0.1-0.1,0-0.3
			c-0.4,0.2-0.9,0.5-1.3,0.8c-0.1,0.1-0.1,0.2-0.1,0.3c0.5,1.5,0.3,3-0.6,4.3c-0.7,1-1.6,1.6-2.8,1.8c-0.1,0-0.1,0-0.2,0.1
			c-0.3,0-0.6,0-1,0c0,0,0,0-0.1,0C1.7,23.6,1.3,23,1.2,22c0-1,0.4-1.8,1.2-2.5c0.9-0.8,1.9-1.4,3-2c0.3-0.1,0.3-0.2,0-0.4
			c-0.5-0.4-1-0.7-1.5-1.1c-0.8-0.5-1.5-1.1-2.2-1.8C1,13.6,0.6,12.9,0.3,12c-0.4-2,1.2-3.4,2.4-4.4c1-0.9,2.1-1.6,3.2-2.3
			c1.6-0.8,3.2-1.6,5-1.9c0.3,0,2.4-0.4,4.4,0.3c0.8,0.3,1.5,0.7,1.8,1.5c0.5,0.8,0.4,1.7,0.2,2.6c-0.5,1.7-1.6,2.9-3.2,3.8
			c-1.2,0.7-2.5,1-3.8,1.1c-0.8,0.1-1.7,0-2.5-0.3c-0.5-0.2-0.8-0.5-1.1-0.9c-0.1-0.1-0.2-0.3-0.2-0.4c0-0.1,0-0.2,0.1-0.3
			c0.1-0.1,0.2,0,0.2,0.1c0.7,0.7,1.6,0.9,2.6,0.8c1.7-0.1,3.2-0.7,4.5-1.7c0.7-0.6,1.3-1.2,1.7-2C15.9,7.7,16,7.3,16,6.9
			c0.1-0.7-0.3-1.3-1-1.6C14.2,5,13.3,4.9,12.4,5c-3.1,0.3-5.6,1.7-8,3.5c-0.6,0.5-1.1,1-1.5,1.7c-0.7,1.3-0.5,2.6,0.6,3.7
			c0.6,0.7,1.4,1.2,2.1,1.7c0.4,0.3,0.8,0.6,1.1,1c0.1,0.1,0.2,0.1,0.3,0c0.8-0.4,1.6-0.9,2.4-1.3c0.1-0.1,0.2-0.1,0.3-0.2
			c0.5-0.5,0.9-1,1.6-1.3c0.1-0.1,0.3-0.1,0.4-0.1c0.7-0.2,1.1,0.2,1.2,0.8c0,0.1,0,0.2,0,0.2c0,0,0,0.5,0,0.7
			C12.9,15.2,13.2,15.2,13.2,15.2z M6.6,18.8c0-0.2,0-0.5-0.1-0.7c0-0.1-0.1-0.2-0.2-0.1c-0.9,0.6-1.9,1.1-2.6,2
			c-0.4,0.5-0.7,1-0.6,1.7c0,0.3,0.2,0.5,0.6,0.6c0.1,0,0.3,0,0.4,0C5.4,21.9,6.6,20.4,6.6,18.8z M9.9,18.5c0,0.2,0,0.4,0,0.6
			s0,0.5,0.3,0.5c0.2,0,0.3-0.2,0.4-0.4c0.4-0.8,0.7-1.6,1-2.3c0.2-0.5,0.4-1.1,0.5-1.7c0-0.1,0.1-0.3,0-0.3c-0.1-0.1-0.2,0-0.4,0
			c-0.2,0.1-0.3,0.2-0.4,0.3C10.3,16.1,9.9,17.2,9.9,18.5z M20.8,17.3c0-0.1,0-0.2,0-0.2c0-0.1-0.1-0.2-0.2-0.1
			c-0.5,0.4-0.7,0.9-0.9,1.5c0,0,0,0.1,0,0.1c0.1,0,0.1,0,0.2,0C20.5,18.4,20.8,18,20.8,17.3z M15.8,19.6c0.6-0.1,1.4-1,1.2-1.5
			C16.7,18.7,16.3,19.1,15.8,19.6z"/>
	</g>
</g>
</svg>
