<?xml version="1.0" encoding="utf-8"?>
<!-- Generator: Adobe Illustrator 20.1.0, SVG Export Plug-In . SVG Version: 6.00 Build 0)  -->
<svg version="1.1" id="Layer_1" xmlns="http://www.w3.org/2000/svg" xmlns:xlink="http://www.w3.org/1999/xlink" x="0px" y="0px"
	 viewBox="0 0 28 28" style="enable-background:new 0 0 28 28;" xml:space="preserve">
<path d="M21.2,6.1c0-0.1-0.1-0.2-0.2-0.2c-0.1,0-2.1-0.2-2.1-0.2s-1.4-1.4-1.6-1.5c0,0,0,0-0.1,0c0,0,0,0,0,0c0,0,0,0,0,0
	c0,0,0,0,0,0c0,0,0,0-0.1,0c-0.1,0-0.3,0-0.4,0c0,0-0.3,0.1-0.8,0.2c-0.5-1.3-1.3-2.6-2.7-2.6c0,0-0.1,0-0.1,0
	C12.7,1.2,12.2,1,11.7,1c-3.4,0-5,4.2-5.5,6.4C4.9,7.7,4,8,3.8,8.1C3.1,8.3,3.1,8.3,3,9C2.9,9.5,1,24.4,1,24.4l14.9,2.8l8.1-1.8
	C24,25.4,21.2,6.2,21.2,6.1z M13,5.1c0,0.1,0,0.1,0,0.1c-0.8,0.3-1.7,0.5-2.6,0.8c0.5-1.9,1.4-2.9,2.3-3.2C12.8,3.3,13,4.1,13,5.1z
	 M11.6,1.9c0.1,0,0.3,0,0.4,0.1C11,2.5,9.8,3.8,9.3,6.4C8.6,6.6,7.9,6.8,7.3,7C7.8,5.1,9.2,1.9,11.6,1.9z M12.2,13.3
	c0,0-0.9-0.5-1.9-0.5c-1.6,0-1.7,1-1.7,1.2c0,1.4,3.5,1.9,3.5,5.1c0,2.5-1.6,4.1-3.7,4.1c-2.6,0-3.9-1.6-3.9-1.6l0.7-2.3
	c0,0,1.3,1.2,2.5,1.2c0.7,0,1-0.6,1-1c0-1.8-2.9-1.8-2.9-4.8c0-2.4,1.8-4.8,5.3-4.8c1.4,0,2,0.4,2,0.4L12.2,13.3z M13.8,5
	c0-0.1,0-0.2,0-0.3c0-0.8-0.1-1.5-0.3-2c0.7,0.1,1.2,0.9,1.6,1.9C14.7,4.7,14.3,4.8,13.8,5z"/>
</svg>
