<?xml version="1.0" encoding="utf-8"?>
<!-- Generator: Adobe Illustrator 19.2.0, SVG Export Plug-In . SVG Version: 6.00 Build 0)  -->
<svg version="1.1" id="Layer_1" xmlns="http://www.w3.org/2000/svg" xmlns:xlink="http://www.w3.org/1999/xlink" x="0px" y="0px"
	 viewBox="0 0 28 28" style="enable-background:new 0 0 28 28;" xml:space="preserve">
<path d="M0,14c0,4.7,2.8,8.9,6.8,10.8L1,9.1C0.4,10.6,0,12.3,0,14z M20.1,13.4c0-1.5-0.5-2.5-1-3.3c-0.6-1-1.2-1.8-1.2-2.8
	c0-1.1,0.8-2.1,2-2.1c0.1,0,0.1,0,0.2,0C18,3.2,15.1,2,12,2C7.8,2,4.1,4.2,2,7.4c0.3,0,0.5,0,0.8,0c1.3,0,3.2-0.2,3.2-0.2
	c0.6,0,0.7,0.9,0.1,1c0,0-0.6,0.1-1.4,0.1l4.4,13l2.6-7.9L9.8,8.4c-0.6,0-1.3-0.1-1.3-0.1c-0.6,0-0.6-1,0.1-1c0,0,2,0.2,3.2,0.2
	C13,7.4,15,7.3,15,7.3c0.6,0,0.7,0.9,0.1,1c0,0-0.6,0.1-1.4,0.1L18,21.3l1.2-4C19.8,15.7,20.1,14.4,20.1,13.4L20.1,13.4L20.1,13.4z
	 M12.2,15.1L8.6,25.5C9.7,25.8,10.8,26,12,26c1.4,0,2.7-0.2,4-0.7c0-0.1-0.1-0.1-0.1-0.2L12.2,15.1z M22.5,8.2
	c0.1,0.4,0.1,0.8,0.1,1.2c0,1.2-0.2,2.6-0.9,4.3L18,24.4c3.6-2.1,6-5.9,6-10.4C24,11.9,23.5,10,22.5,8.2C22.5,8.2,22.5,8.2,22.5,8.2
	z"/>
</svg>
