<?xml version="1.0" encoding="utf-8"?>
<!-- Generator: Adobe Illustrator 19.2.0, SVG Export Plug-In . SVG Version: 6.00 Build 0)  -->
<svg version="1.1" id="Layer_1" xmlns="http://www.w3.org/2000/svg" xmlns:xlink="http://www.w3.org/1999/xlink" x="0px" y="0px"
	 viewBox="0 0 28 28" style="enable-background:new 0 0 28 28;" xml:space="preserve">
<path d="M10.6,12.1l-0.1-0.2c0,0,0,0,0,0L10.6,12.1L10.6,12.1z M11,11.8l-0.1-0.1c0,0,0,0,0,0L11,11.8z M11.3,11.3l-0.1-0.1
	c0,0,0,0,0,0L11.3,11.3z M11.3,10.8l-0.2,0c0,0,0,0,0,0L11.3,10.8z M11.2,10.3l-0.2,0c0,0,0,0,0,0L11.2,10.3z M9.1,12l0.1-0.1
	c0,0,0,0,0,0L9.1,12L9.1,12z M10.1,12.3l0-0.2c0,0,0,0,0,0L10.1,12.3z M9.6,12.2l0.1-0.2c0,0,0,0,0,0L9.6,12.2z M9.2,11.9
	C9.3,12,9.4,12,9.6,12.1l0.1-0.7L9.2,11.9L9.2,11.9z M10.5,9.5l-0.1,0.1c0,0,0,0,0,0L10.5,9.5L10.5,9.5z M8.7,10.1l0.1,0.1
	c0,0,0,0,0,0L8.7,10.1L8.7,10.1z M8.5,10.6l0.2,0c0,0,0,0,0,0L8.5,10.6z M8.5,11.1l0.2,0c0,0,0,0,0,0L8.5,11.1L8.5,11.1z M10.9,9.8
	l-0.1,0.1c0,0,0,0,0,0L10.9,9.8z M8.7,11.6l0.1-0.1c0,0,0,0,0,0L8.7,11.6z M9.6,12.1c0.1,0,0.2,0,0.3,0c0,0,0.1,0,0.1,0l-0.2-0.6
	L9.6,12.1z M10,9.4l0,0.2c0,0,0,0,0,0L10,9.4L10,9.4z M9.5,9.5l0,0.2c0,0,0,0,0,0L9.5,9.5L9.5,9.5z M9,9.7l0.1,0.1c0,0,0,0,0,0
	L9,9.7z M10.5,11.9c0.1-0.1,0.2-0.2,0.3-0.3l-0.6-0.4L10.5,11.9z M10.3,10.9c0,0.2-0.2,0.4-0.4,0.4c-0.2,0-0.4-0.2-0.4-0.4
	c0-0.2,0.2-0.4,0.4-0.4C10.1,10.5,10.3,10.7,10.3,10.9z M8.7,11.1c0,0.1,0.1,0.3,0.2,0.4l0.5-0.4L8.7,11.1z M8.6,10.7
	c0,0.1,0,0.1,0,0.2c0,0.1,0,0.2,0,0.2l0.6-0.2L8.6,10.7z M9.1,11.9l0.3-0.6l-0.6,0.3C8.9,11.7,9,11.8,9.1,11.9z M9.9,12.6
	c1,0,1.8-0.8,1.8-1.8c0-1-0.8-1.8-1.8-1.8c-1,0-1.8,0.8-1.8,1.8C8.1,11.8,8.9,12.6,9.9,12.6z M9.9,9.4c0.8,0,1.5,0.7,1.5,1.5
	c0,0.8-0.7,1.5-1.5,1.5s-1.5-0.7-1.5-1.5S9.1,9.4,9.9,9.4z M8.8,10.2c-0.1,0.1-0.1,0.3-0.1,0.4l0.7,0L8.8,10.2z M14.7,18.2
	c-3.4-0.8-4.8,0.9-4.8,0.9c0,1.7,2.3,4.8,5.2,5.1c2.9,0.4,4.7-1,4.7-1S18,19,14.7,18.2z M5.1,18.2c-3.4,0.8-5.1,5-5.1,5
	s1.8,1.4,4.7,1c2.9-0.4,5.2-3.4,5.2-5.1C9.9,19.1,8.5,17.4,5.1,18.2z M10.1,12.1c0.1,0,0.3-0.1,0.4-0.1l-0.4-0.5L10.1,12.1
	L10.1,12.1z M0.6,14.7h18.7l0.6-1.7h-2.7l0.5-3.1l0.7-4.1c0,0-1.9-3.7-8.4-3.7C2.1,2,1.5,5.7,1.5,5.7L2.7,13H0L0.6,14.7L0.6,14.7z
	 M9.9,8.8c1.1,0,2,0.9,2,2c0,1.1-0.9,2-2,2s-2-0.9-2-2C7.9,9.7,8.8,8.8,9.9,8.8z M11.2,10.8c0-0.1,0-0.3-0.1-0.4l-0.6,0.3L11.2,10.8
	L11.2,10.8z M11.1,11.2c0-0.1,0.1-0.3,0.1-0.4c0,0,0,0,0,0l-0.6,0.1L11.1,11.2z M10.9,11.7c0.1-0.1,0.2-0.2,0.2-0.4l-0.6-0.1
	L10.9,11.7L10.9,11.7z M11.1,10.3c-0.1-0.1-0.1-0.2-0.2-0.4l-0.4,0.5L11.1,10.3L11.1,10.3z M10.8,9.9c-0.1-0.1-0.2-0.2-0.3-0.2
	l-0.2,0.6L10.8,9.9L10.8,9.9z M9.1,9.9C9,9.9,8.9,10.1,8.8,10.2l0.6,0.2L9.1,9.9L9.1,9.9z M10,9.6C9.9,9.6,9.9,9.6,10,9.6
	c-0.2,0-0.3,0-0.4,0.1l0.3,0.6L10,9.6L10,9.6z M9.5,9.6c-0.1,0-0.3,0.1-0.4,0.2l0.5,0.5L9.5,9.6z M10.4,9.7
	c-0.1-0.1-0.3-0.1-0.4-0.1l0.1,0.7L10.4,9.7z"/>
</svg>
